<?xml version="1.0" encoding="UTF-8"?>
<svg width="139px" height="44px" viewBox="0 0 139 44" version="1.1" xmlns="http://www.w3.org/2000/svg" xmlns:xlink="http://www.w3.org/1999/xlink">
    <!-- Generator: Sketch 63.1 (92452) - https://sketch.com -->
    <title>bubble-1200</title>
    <desc>Created with Sketch.</desc>
    <g id="Page-1" stroke="none" stroke-width="1" fill="none" fill-rule="evenodd">
        <g id="3b---staff----service" transform="translate(-762.000000, -98.000000)">
            <g id="bubble-1200" transform="translate(763.481618, 100.000000)">
                <path d="M15.518382,33 L3.43126946,36.323956 C2.71086434,36.5220674 1.94010317,36.3021108 1.43275762,35.7536291 C0.682708553,34.9427653 0.73200868,33.6773954 1.54287253,32.9273463 L1.54287253,32.9273463 L15.518382,20 L15.518382,8 C15.518382,3.581722 19.100104,8.11624501e-16 23.518382,0 L127.518382,0 C131.93666,-8.11624501e-16 135.518382,3.581722 135.518382,8 L135.518382,32 C135.518382,36.418278 131.93666,40 127.518382,40 L23.518382,40 C19.100104,40 15.518382,36.418278 15.518382,32 L15.518382,33 Z" id="bubble" stroke="#4AADB6" stroke-width="3" fill="#FFFFFF"></path>
                <text id="$1200" font-family="FrutigerLTStd-Roman, Frutiger LT Std" font-size="24" font-weight="normal" fill="#4AADB6">
                    <tspan x="41.658382" y="28">$1200</tspan>
                </text>
            </g>
        </g>
    </g>
</svg>