<?xml version="1.0" encoding="UTF-8"?>
<svg width="20px" height="24px" viewBox="0 0 20 24" version="1.1" xmlns="http://www.w3.org/2000/svg" xmlns:xlink="http://www.w3.org/1999/xlink">
    <!-- Generator: Sketch 63.1 (92452) - https://sketch.com -->
    <title>calculator</title>
    <desc>Created with Sketch.</desc>
    <g id="Page-1" stroke="none" stroke-width="1" fill="none" fill-rule="evenodd">
        <g id="4c---expenditures---wrong" transform="translate(-964.000000, -118.000000)" fill="#000000">
            <g id="calculator" transform="translate(964.000000, 118.000000)">
                <path d="M2.8,0.8 C1.69595,0.8013 0.8013,1.69595 0.8,2.8 L0.8,21.2 C0.8013,22.304 1.69595,23.1987 2.8,23.2 L16.4,23.2 C17.504,23.1987 18.3987,22.304 18.4,21.2 L18.4,2.8 C18.3987,1.69595 17.504,0.8013 16.4,0.8 L2.8,0.8 Z M16.4,24 L2.8,24 C1.25435,23.99825 0.00175,22.74565 0,21.2 L0,2.8 C0.00175,1.25435 1.25435,0.00175 2.8,0 L16.4,0 C17.94565,0.00175 19.19825,1.25435 19.2,2.8 L19.2,21.2 C19.19825,22.74565 17.94565,23.99825 16.4,24 L16.4,24 Z" id="Fill-1"></path>
                <path d="M8.4,19.2 C8.1791,19.2 8,19.3791 8,19.6 L8,21.2 C8,21.4209 8.1791,21.6 8.4,21.6 L10.8,21.6 C11.0209,21.6 11.2,21.4209 11.2,21.2 L11.2,19.6 C11.2,19.3791 11.0209,19.2 10.8,19.2 L8.4,19.2 Z M10.8,22.4 L8.4,22.4 C7.73725,22.4 7.2,21.86275 7.2,21.2 L7.2,19.6 C7.2,18.93725 7.73725,18.4 8.4,18.4 L10.8,18.4 C11.46275,18.4 12,18.93725 12,19.6 L12,21.2 C12,21.86275 11.46275,22.4 10.8,22.4 L10.8,22.4 Z" id="Fill-3"></path>
                <path d="M2.8,19.2 C2.5791,19.2 2.4,19.3791 2.4,19.6 L2.4,21.2 C2.4,21.4209 2.5791,21.6 2.8,21.6 L5.2,21.6 C5.4209,21.6 5.6,21.4209 5.6,21.2 L5.6,19.6 C5.6,19.3791 5.4209,19.2 5.2,19.2 L2.8,19.2 Z M5.2,22.4 L2.8,22.4 C2.13725,22.4 1.6,21.86275 1.6,21.2 L1.6,19.6 C1.6,18.93725 2.13725,18.4 2.8,18.4 L5.2,18.4 C5.86275,18.4 6.4,18.93725 6.4,19.6 L6.4,21.2 C6.4,21.86275 5.86275,22.4 5.2,22.4 L5.2,22.4 Z" id="Fill-5"></path>
                <path d="M14,14.4 C13.7791,14.4 13.6,14.5791 13.6,14.8 L13.6,21.2 C13.6,21.4209 13.7791,21.6 14,21.6 L16.4,21.6 C16.6209,21.6 16.8,21.4209 16.8,21.2 L16.8,14.8 C16.8,14.5791 16.6209,14.4 16.4,14.4 L14,14.4 Z M16.4,22.4 L14,22.4 C13.33725,22.4 12.8,21.86275 12.8,21.2 L12.8,14.8 C12.8,14.13725 13.33725,13.6 14,13.6 L16.4,13.6 C17.06275,13.6 17.6,14.13725 17.6,14.8 L17.6,21.2 C17.6,21.86275 17.06275,22.4 16.4,22.4 L16.4,22.4 Z" id="Fill-7"></path>
                <path d="M8.4,14.4 C8.1791,14.4 8,14.5791 8,14.8 L8,16.4 C8,16.6209 8.1791,16.8 8.4,16.8 L10.8,16.8 C11.0209,16.8 11.2,16.6209 11.2,16.4 L11.2,14.8 C11.2,14.5791 11.0209,14.4 10.8,14.4 L8.4,14.4 Z M10.8,17.6 L8.4,17.6 C7.73725,17.6 7.2,17.06275 7.2,16.4 L7.2,14.8 C7.2,14.13725 7.73725,13.6 8.4,13.6 L10.8,13.6 C11.46275,13.6 12,14.13725 12,14.8 L12,16.4 C12,17.06275 11.46275,17.6 10.8,17.6 L10.8,17.6 Z" id="Fill-9"></path>
                <path d="M2.8,14.4 C2.5791,14.4 2.4,14.5791 2.4,14.8 L2.4,16.4 C2.4,16.6209 2.5791,16.8 2.8,16.8 L5.2,16.8 C5.4209,16.8 5.6,16.6209 5.6,16.4 L5.6,14.8 C5.6,14.5791 5.4209,14.4 5.2,14.4 L2.8,14.4 Z M5.2,17.6 L2.8,17.6 C2.13725,17.6 1.6,17.06275 1.6,16.4 L1.6,14.8 C1.6,14.13725 2.13725,13.6 2.8,13.6 L5.2,13.6 C5.86275,13.6 6.4,14.13725 6.4,14.8 L6.4,16.4 C6.4,17.06275 5.86275,17.6 5.2,17.6 L5.2,17.6 Z" id="Fill-11"></path>
                <path d="M8.4,9.6 C8.1791,9.6 8,9.7791 8,10 L8,11.6 C8,11.8209 8.1791,12 8.4,12 L10.8,12 C11.0209,12 11.2,11.8209 11.2,11.6 L11.2,10 C11.2,9.7791 11.0209,9.6 10.8,9.6 L8.4,9.6 Z M10.8,12.8 L8.4,12.8 C7.73725,12.8 7.2,12.26275 7.2,11.6 L7.2,10 C7.2,9.33725 7.73725,8.8 8.4,8.8 L10.8,8.8 C11.46275,8.8 12,9.33725 12,10 L12,11.6 C12,12.26275 11.46275,12.8 10.8,12.8 L10.8,12.8 Z" id="Fill-13"></path>
                <path d="M2.8,9.6 C2.5791,9.6 2.4,9.7791 2.4,10 L2.4,11.6 C2.4,11.8209 2.5791,12 2.8,12 L5.2,12 C5.4209,12 5.6,11.8209 5.6,11.6 L5.6,10 C5.6,9.7791 5.4209,9.6 5.2,9.6 L2.8,9.6 Z M5.2,12.8 L2.8,12.8 C2.13725,12.8 1.6,12.26275 1.6,11.6 L1.6,10 C1.6,9.33725 2.13725,8.8 2.8,8.8 L5.2,8.8 C5.86275,8.8 6.4,9.33725 6.4,10 L6.4,11.6 C6.4,12.26275 5.86275,12.8 5.2,12.8 L5.2,12.8 Z" id="Fill-15"></path>
                <path d="M14,9.6 C13.7791,9.6 13.6,9.7791 13.6,10 L13.6,11.6 C13.6,11.8209 13.7791,12 14,12 L16.4,12 C16.6209,12 16.8,11.8209 16.8,11.6 L16.8,10 C16.8,9.7791 16.6209,9.6 16.4,9.6 L14,9.6 Z M16.4,12.8 L14,12.8 C13.33725,12.8 12.8,12.26275 12.8,11.6 L12.8,10 C12.8,9.33725 13.33725,8.8 14,8.8 L16.4,8.8 C17.06275,8.8 17.6,9.33725 17.6,10 L17.6,11.6 C17.6,12.26275 17.06275,12.8 16.4,12.8 L16.4,12.8 Z" id="Fill-17"></path>
                <path d="M2.8,2.4 C2.5791,2.4 2.4,2.5791 2.4,2.8 L2.4,6 C2.4,6.2209 2.5791,6.4 2.8,6.4 L16.4,6.4 C16.6209,6.4 16.8,6.2209 16.8,6 L16.8,2.8 C16.8,2.5791 16.6209,2.4 16.4,2.4 L2.8,2.4 Z M16.4,7.2 L2.8,7.2 C2.13725,7.2 1.6,6.66275 1.6,6 L1.6,2.8 C1.6,2.13725 2.13725,1.6 2.8,1.6 L16.4,1.6 C17.06275,1.6 17.6,2.13725 17.6,2.8 L17.6,6 C17.6,6.66275 17.06275,7.2 16.4,7.2 L16.4,7.2 Z" id="Fill-19"></path>
                <path d="M15.2,3.6 C14.9791,3.6 14.8,3.7791 14.8,4 L14.8,4.8 C14.8,5.0209 14.9791,5.2 15.2,5.2 C15.4209,5.2 15.6,5.0209 15.6,4.8 L15.6,4 C15.6,3.7791 15.4209,3.6 15.2,3.6 M15.2,6 C14.53725,6 14,5.46275 14,4.8 L14,4 C14,3.33725 14.53725,2.8 15.2,2.8 C15.86275,2.8 16.4,3.33725 16.4,4 L16.4,4.8 C16.4,5.46275 15.86275,6 15.2,6" id="Fill-21"></path>
            </g>
        </g>
    </g>
</svg>