<?xml version="1.0" encoding="UTF-8"?>
<svg width="163px" height="358px" viewBox="0 0 163 358" version="1.1" xmlns="http://www.w3.org/2000/svg" xmlns:xlink="http://www.w3.org/1999/xlink">
    <!-- Generator: Sketch 63.1 (92452) - https://sketch.com -->
    <title>chef</title>
    <desc>Created with Sketch.</desc>
    <defs>
        <polygon id="path-1" points="0.128738889 -0.00458870968 130.660234 -0.00458870968 130.660234 76 0.128738889 76"></polygon>
        <polygon id="path-3" points="0.846850172 0.383176458 23.5875 0.383176458 23.5875 31.5831288 0.846850172 31.5831288"></polygon>
    </defs>
    <g id="Page-1" stroke="none" stroke-width="1" fill="none" fill-rule="evenodd">
        <g id="3a---staff---chef" transform="translate(-646.000000, -100.000000)">
            <g id="chef" transform="translate(646.000000, 100.000000)">
                <g id="Group-3" transform="translate(17.000000, 282.000000)">
                    <mask id="mask-2" fill="white">
                        <use xlink:href="#path-1"></use>
                    </mask>
                    <g id="Clip-2"></g>
                    <path d="M111.543331,11.1262581 C86.0541278,-3.71487097 44.7329981,-3.71487097 19.2437944,11.1262581 C-6.2429463,25.9673871 -6.2429463,50.0286452 19.2437944,64.8697742 C44.7329981,79.7109032 86.0565907,79.7109032 111.543331,64.8697742 C137.032535,50.0286452 137.032535,25.9673871 111.543331,11.1262581" id="Fill-1" fill="#A8B0B5" mask="url(#mask-2)"></path>
                </g>
                <path d="M119.406827,303.327921 C105.433612,296.38594 103.252764,296 103.252764,296 L80.1762363,306.798911 C80.1762363,306.798911 78.5085291,309.626667 85.4334611,310.784488 C92.3559261,311.94231 110.305981,318.755643 117.73912,316.571121 C125.177193,314.384125 133.382509,310.269901 119.406827,303.327921" id="Fill-4" fill="#523D40"></path>
                <path d="M79.7692697,306 C79.7692697,306 101.142845,300.627784 102.670578,295.258029 L104,226 L75,237.650055 L79.7692697,306 Z" id="Fill-6" fill="#FF7DAF"></path>
                <path d="M67.4914459,318.360699 C67.4914459,318.360699 58.9867862,314.827717 45.5594293,319.147488 C45.5594293,319.147488 42.2726285,335.659954 51.6327569,337.886666 C60.990384,340.115899 77.1117169,339.197979 74.7704341,333.299589 C72.4316527,327.403721 67.4914459,318.360699 67.4914459,318.360699" id="Fill-8" fill="#523D40"></path>
                <path d="M43.5579159,320 C43.5579159,320 57.0426611,315.364334 66.7088906,318.711627 L69,238 L41,238 L43.5579159,320 Z" id="Fill-10" fill="#FF7DAF"></path>
                <path d="M75.758906,249 C91.1524565,248.025232 103.767432,238.362971 103.767432,238.362971 L104,226 L75,229.019771 L75.758906,249 Z" id="Fill-12" fill="#D15484"></path>
                <path d="M41.4577723,249.172545 C56.9828641,251.620118 68.620563,247.85833 68.620563,247.85833 L69,234.827111 L41,234 L41.4577723,249.172545 Z" id="Fill-14" fill="#D15484"></path>
                <path d="M141,97 C141,97 142.841923,109.513462 150.953559,110 C150.953559,110 151.611389,106.326141 147.975386,102.456177 C144.339382,98.5862135 141,97 141,97" id="Fill-16" fill="#B1BABA"></path>
                <g id="Group-20" transform="translate(139.000000, 78.000000)">
                    <mask id="mask-4" fill="white">
                        <use xlink:href="#path-3"></use>
                    </mask>
                    <g id="Clip-19"></g>
                    <path d="M15.9255,0.4455 C10.8605,-0.042 12.9055,2.4905 12.9055,2.4905 C12.9055,2.4905 14.658,9.2155 12.9055,11.8455 C11.153,14.4755 6.083,14.573 6.083,14.573 L1.143,19.813 C-0.6795,23.003 6.4755,34.453 7.213,30.9105 C7.948,27.3705 14.658,24.0255 14.658,24.0255 C26.2555,19.8355 23.2355,7.6555 23.2355,7.6555 C23.2355,7.6555 20.993,0.933 15.9255,0.4455" id="Fill-18" fill="#FFE1CC" mask="url(#mask-4)"></path>
                </g>
                <path d="M151.113162,82.0004515 C150.186111,81.9563935 146.87487,85.1481486 144.798082,86.6754915 C142.721295,88.2003868 143.014175,95 143.014175,95 C143.014175,95 149.043636,93.3527215 147.973776,92.2806442 C146.906336,91.2061193 149.704432,88.0119166 151.113162,85.9118201 C152.524312,83.8141712 152.042633,82.0445094 151.113162,82.0004515" id="Fill-21" fill="#FFE1CC"></path>
                <path d="M140.738511,96.6016071 C140.738511,96.6016071 118.595299,119.85091 115.103286,119.503572 C111.613739,119.161196 103.490369,105.528188 98.9379274,100.308197 C98.9379274,100.308197 81.4408688,77.1482101 69.1127791,86.0276525 C56.7846895,94.9070949 84.0204211,126.313874 99.4360819,137.895108 C114.854209,149.478823 119.870279,142.623864 128.287116,133.486399 C136.701488,124.348934 151,109.594521 151,109.594521 C151,109.594521 139.976483,105.409101 140.738511,96.6016071" id="Fill-23" fill="#BECCCC"></path>
                <path d="M99.9903882,112.239578 C94.6727357,93.3521097 84,85 84,85 C84,85 88.4492606,128.540506 96.3596118,135.655359 C104.269963,142.7727 111,144 111,144 C106.837708,142.640759 105.308041,131.127046 99.9903882,112.239578" id="Fill-25" fill="#A9B5B5"></path>
                <path d="M36.105,237.957328 C35.981,237.939328 35.895,237.927328 35.895,237.927328 C35.895,237.927328 35.951,238.233328 36.105,237.957328" id="Fill-27" fill="#F2F7F7"></path>
                <path d="M81.4085231,83.7012402 L70.9996144,81 L53.0027874,81 L36,96.0536577 C36,96.0536577 43.7292158,177.115624 40.2488377,209.54041 C37.8145561,232.232313 36.706487,236.958865 36.2602847,237.756114 C40.0158209,238.258728 87.7619484,244.243052 105.949651,224.594068 C105.949651,224.594068 108.269903,92.193682 81.4085231,83.7012402" id="Fill-29" fill="#F2F7F7"></path>
                <path d="M39,129.472143 C39,129.472143 42.7966369,176.775433 39.4109891,220 C39.4109891,220 54.6501634,178.041072 46.7060452,116 C46.7060452,116 44.7738953,121.166381 39,129.472143" id="Fill-31" fill="#A9B5B5"></path>
                <path d="M53.6484478,68 L53,74.756882 L53,81.1334748 C53,81.1334748 55.7234807,105.869453 70.6278034,104.976387 C85.5321261,104.08332 73.2265826,82.3724818 73.2265826,82.3724818 L53.6484478,68 Z" id="Fill-33" fill="#F2CBB1"></path>
                <path d="M81.294862,31.9075207 C73.1281229,28.1576119 49.9225109,37.2076572 47.2010961,37.7252292 C44.4771867,38.2428013 39.2937769,50.5276716 47.2010961,61.777398 C55.1084152,73.0296127 49.9225109,75.7443774 52.7736358,74.8386264 C55.6272551,73.9353637 55.4077459,70.5885639 55.4077459,70.5885639 C70.2271096,71.1210659 71.3121834,41.4776264 78.4412427,40.1836963 C85.5727965,38.8897663 86.4633053,44.7273814 86.4633053,44.7273814 C86.4633053,44.7273814 89.4591067,35.6574295 81.294862,31.9075207" id="Fill-35" fill="#45322B"></path>
                <path d="M81.399271,37 C70.4995629,38.540542 71.782462,42.1326711 66.268463,47.2628734 C60.7569311,52.3955446 66.3967529,62.4041298 62.2939429,59.0662889 C58.1936,55.7309167 54.7297724,54.321222 52.5513111,57.2714587 C50.3703826,60.2216953 55.2429321,68.8181171 57.0389908,74.0791667 C58.8350496,79.3377475 71.5258822,84.3420402 80.3729517,82.6731197 C89.2200213,81.006668 86.6542231,56.7579447 86.6542231,47.6480089 C86.6542231,38.540542 81.399271,37 81.399271,37" id="Fill-37" fill="#FFE1CC"></path>
                <path d="M79.4583062,35.0645369 C71.1153483,33.8953371 65,49 65,49 C65,49 69.953009,42.6593393 74.318626,41.8798728 C78.6817541,41.1029045 84.9912404,38.7345253 86.9774219,44.8853159 C86.9774219,44.8853159 87.8037531,36.2337368 79.4583062,35.0645369" id="Fill-39" fill="#45322B"></path>
                <path d="M45.328976,30.1820192 C45.328976,30.1820192 46.714663,37.5803732 45,42.8458911 C45,42.8458911 46.3009507,44.2929036 61.1621942,38.3189525 C76.0234376,32.3450015 82.9967328,33.287067 82.9967328,33.287067 C82.9967328,33.287067 82.5855128,20.3016368 82.9967328,17.3649048 C83.4054606,14.4281727 45.328976,30.1820192 45.328976,30.1820192" id="Fill-41" fill="#F2F7F7"></path>
                <path d="M52.1770892,10.6854575 C46.491541,9.30208842 42.4598384,6.72632865 39.3603913,13.2293875 C36.2609442,19.729998 36.3456947,24.8986566 38.8446239,26.972486 C38.8446239,26.972486 43.0797278,32.9785114 51.3489557,28.071836 C59.6157622,23.1651605 57.860216,12.0663781 52.1770892,10.6854575" id="Fill-43" fill="#F2F7F7"></path>
                <path d="M83.344331,7.8177671 C78.4238933,4.45212905 75.4338566,0.82410243 70.4717203,4.61864488 C65.5071311,8.41066436 63.9642819,12.4575035 65.666567,15.0738204 C65.666567,15.0738204 67.7686682,21.4468351 77.1018016,20.9750403 C86.434935,20.5057684 88.2672216,11.1859281 83.344331,7.8177671" id="Fill-45" fill="#F2F7F7"></path>
                <path d="M68.4190691,3.61172198 C61.6368317,0.816378717 57.1579957,-3.04027211 51.9489965,3.94930036 C46.7374882,10.9388728 45.7689556,17.0225695 48.4462206,19.9733446 C48.4462206,19.9733446 52.4709001,27.8979363 63.7746291,23.8469957 C75.0808672,19.7960552 75.2038156,6.40949387 68.4190691,3.61172198" id="Fill-47" fill="#F2F7F7"></path>
                <path d="M70.776,23.042 C70.872,23.056 70.964,23.05 71.06,23.064 C71.112,23.02 71.168,22.98 71.224,22.936 L70.776,23.042 Z" id="Fill-49" fill="#B1BABA"></path>
                <path d="M55.692,26.048 C55.812,26.102 55.934,26.124 56.056,26.172 C56.14,26.056 56.234,25.954 56.308,25.828 L55.692,26.048 Z" id="Fill-51" fill="#B1BABA"></path>
                <path d="M71.0775943,21.8810573 L70.8282954,21.8199706 L70.5191648,22.00558 C69.9607354,22.343906 69.4571518,22.7574156 68.8837644,23.0651982 C68.3103771,23.3729809 67.7469617,23.6948605 67.1386725,23.9274596 C65.9594889,24.4725404 64.6880648,24.8061674 63.3991898,25.0152717 C60.8388906,25.4593245 58.0816454,25.2337739 55.6210658,24.5101322 L55.0601433,24.3433186 L54.8507323,24.7685756 C54.3047678,25.8845815 53.2352758,26.7867841 52.0087255,27.4446402 C50.7896541,28.1471366 49.4135245,28.6217327 48,29 C49.4783422,28.9459618 50.9367404,28.6099853 52.3477719,28.0883994 C53.5768152,27.5762115 54.7535058,26.8032305 55.6011218,25.6942731 C55.4490495,25.6378855 55.2969773,25.6096916 55.1473979,25.548605 L55.9152384,25.287812 C55.8229978,25.4358297 55.7058274,25.5556535 55.6011218,25.6942731 C56.8251792,26.1500734 58.0592085,26.4179148 59.3406045,26.5706314 C60.7715799,26.7256975 62.2299782,26.6763583 63.6584606,26.4555066 C65.08445,26.225257 66.4855095,25.8117474 67.7793705,25.1985316 C68.4425055,24.9236417 69.0383297,24.5312775 69.6441259,24.1694567 C70.1726395,23.8405286 70.6488002,23.4481645 71.134933,23.0722467 C71.0177625,23.0581498 70.9030851,23.0651982 70.7834216,23.0487518 L71.3393581,22.9218796 C71.2720474,22.9735683 71.2022437,23.020558 71.134933,23.0722467 C72.6855718,23.2696035 74.1963228,23.2602056 75.7020879,23.0182085 C77.3000935,22.7104258 78.8706762,22.0760646 80,21 C78.6413213,21.7941263 77.1305703,22.1888399 75.5948894,22.266373 C74.0816454,22.3720999 72.5010907,22.2311307 71.0775943,21.8810573" id="Fill-53" fill="#B1BABA"></path>
                <path d="M43.4996585,182.88941 C43.4996585,182.88941 46.06835,183.792189 48.3259043,180.439008 C50.5834585,177.088307 46.447021,170 46.447021,170 C46.447021,170 41.4326457,180.052103 43.4996585,182.88941" id="Fill-55" fill="#B1BABA"></path>
                <path d="M24.4031476,150.831739 C23.8269754,147.364842 34.7840956,135.973254 38.6080074,130.220626 C38.6080074,130.220626 56.2625133,107.296601 44.5568618,97.6668801 C32.848748,88.0346877 9.81417302,122.515861 2.71297426,140.431047 C-4.3882245,158.343762 3.48120381,161.425174 14.421088,167.204984 C25.3634345,172.982322 43.2124601,183 43.2124601,183 C43.2124601,183 44.3623421,171.250109 53,169.708167 C53,169.708167 24.9768575,154.298636 24.4031476,150.831739" id="Fill-57" fill="#BECCCC"></path>
                <path d="M43,186.669454 C45.4065237,187.802272 51,185.659908 51,185.659908 L48.0063425,184 L43,186.669454 Z" id="Fill-59" fill="#EACEBB"></path>
                <path d="M51.3502358,170 C44.3067175,172.557815 43.4792628,180.137713 43.4792628,180.137713 C43.4792628,180.137713 48.0074201,182.983559 47.7079119,184.999778 C47.410942,187.015996 44.8422787,186.055892 42.4335224,186.629493 C40.0273043,187.205555 41.3776292,189.125763 41.3776292,189.125763 C41.3776292,189.125763 43.9513689,191.619571 51.3502358,190.85395 C58.7491027,190.085867 58.195774,179.721668 57.7998141,176.452391 C57.4038542,173.180652 51.3502358,170 51.3502358,170" id="Fill-61" fill="#FFE1CC"></path>
                <path d="M19,147.410621 L25.1187616,152 C23.8759644,149.887547 27.2967087,144.522115 27.2967087,144.522115 C35.5934173,135.70783 44,121 44,121 C36.8996972,133.49868 19,147.410621 19,147.410621" id="Fill-63" fill="#A9B5B5"></path>
                <path d="M72,105.79166 C72.1565604,106.20352 87.345443,148.353848 81.2345376,237 L83.5450659,236.501822 C89.6938488,147.293369 74.3736575,105.416793 74.2221474,105 L72,105.79166 Z" id="Fill-65" fill="#A9B5B5"></path>
                <path d="M52.7244841,81 L51.0152917,82.4743147 C50.358881,98.8760654 71.0534899,113 71.0534899,113 C70.1648108,109.935883 73,104.498119 73,104.498119 C58.5135213,99.4412194 52.7244841,81 52.7244841,81" id="Fill-67" fill="#FAFBFB"></path>
                <path d="M73.1893569,83 C81.5259142,100.913769 73,105.044159 73,105.044159 C76.8211244,106.847705 78.3286964,111 78.3286964,111 C82.0891295,101.259388 78.3286964,83.644993 78.3286964,83.644993 L73.1893569,83 Z" id="Fill-69" fill="#FAFBFB"></path>
                <path d="M80.2624584,115.046778 C79.2347206,115.311329 78.7340957,116.624285 79.1420122,117.978884 C79.54728,119.333483 80.7127559,120.217768 81.7404937,119.953218 C82.7629339,119.691116 83.2662076,118.37816 82.8582911,117.023561 C82.4503745,115.666513 81.2901962,114.782227 80.2624584,115.046778" id="Fill-71" fill="#A9B5B5"></path>
                <path d="M83.5682837,131.014964 C82.4915321,131.164912 81.8107646,132.398353 82.0467279,133.769649 C82.2854033,135.143363 83.3540183,136.134953 84.4307699,135.985005 C85.5102338,135.837476 86.1910012,134.601617 85.9523258,133.230321 C85.7136503,131.859025 84.6450353,130.865017 83.5682837,131.014964" id="Fill-73" fill="#A9B5B5"></path>
                <path d="M86.5682837,151.014964 C85.4915321,151.164912 84.8107646,152.398353 85.0467279,153.769649 C85.2854033,155.143363 86.3540183,156.134953 87.4307699,155.985005 C88.5102338,155.837476 89.1910012,154.601617 88.9523258,153.230321 C88.7136503,151.859025 87.6450353,150.865017 86.5682837,151.014964" id="Fill-75" fill="#A9B5B5"></path>
                <path d="M87.5682837,171.014964 C86.4915321,171.164912 85.8107646,172.398353 86.0467279,173.769649 C86.2854033,175.143363 87.3540183,176.134953 88.4307699,175.985005 C89.5102338,175.837476 90.1910012,174.601617 89.9523258,173.230321 C89.7136503,171.859025 88.6450353,170.865017 87.5682837,171.014964" id="Fill-77" fill="#A9B5B5"></path>
                <path d="M87.5682837,196.014996 C86.4915321,196.164956 85.8107646,197.396074 86.0467279,198.769896 C86.2854033,200.143718 87.3540183,201.132967 88.4307699,200.985426 C89.5102338,200.835466 90.1910012,199.601929 89.9523258,198.230526 C89.7136503,196.856704 88.6450353,195.865037 87.5682837,196.014996" id="Fill-79" fill="#A9B5B5"></path>
                <path d="M87.5682837,221.014964 C86.4915321,221.164912 85.8107646,222.395934 86.0467279,223.769649 C86.2854033,225.143363 87.3540183,226.134953 88.4307699,225.985005 C89.5102338,225.835057 90.1910012,224.601617 89.9523258,223.230321 C89.7136503,221.859025 88.6450353,220.865017 87.5682837,221.014964" id="Fill-81" fill="#A9B5B5"></path>
            </g>
        </g>
    </g>
</svg>