<?xml version="1.0" encoding="UTF-8"?>
<svg width="20px" height="20px" viewBox="0 0 20 20" version="1.1" xmlns="http://www.w3.org/2000/svg" xmlns:xlink="http://www.w3.org/1999/xlink">
    <!-- Generator: Sketch 63.1 (92452) - https://sketch.com -->
    <title>confirm</title>
    <desc>Created with Sketch.</desc>
    <defs>
        <path d="M10,0 C15.523,0 20,4.477 20,10 C20,15.523 15.523,20 10,20 C4.477,20 0,15.523 0,10 C0,4.477 4.477,0 10,0" id="path-1"></path>
        <path d="M8.8266,15.2617 C8.4646,15.2617 8.1156,15.1137 7.8626,14.8487 L4.8626,11.7057 C4.3536,11.1737 4.3736,10.3297 4.9066,9.8217 C5.4386,9.3127 6.2836,9.3307 6.7906,9.8657 L8.6156,11.7767 L12.7016,5.3557 C13.0976,4.7347 13.9216,4.5517 14.5426,4.9467 C15.1636,5.3417 15.3476,6.1657 14.9516,6.7867 L9.9516,14.6437 C9.7316,14.9907 9.3646,15.2157 8.9566,15.2557 C8.9136,15.2597 8.8696,15.2617 8.8266,15.2617" id="path-3"></path>
    </defs>
    <g id="Page-1" stroke="none" stroke-width="1" fill="none" fill-rule="evenodd">
        <g id="4e---expenditures---correct" transform="translate(-863.000000, -262.000000)">
            <g id="Group" transform="translate(863.000000, 262.000000)">
                <g id="confirm">
                    <mask id="mask-2" fill="white">
                        <use xlink:href="#path-1"></use>
                    </mask>
                    <use id="Fill-1" fill="#4AADB6" xlink:href="#path-1"></use>
                    <mask id="mask-4" fill="white">
                        <use xlink:href="#path-3"></use>
                    </mask>
                    <use id="Fill-3" fill="#FFFFFF" xlink:href="#path-3"></use>
                </g>
            </g>
        </g>
    </g>
</svg>