<?xml version="1.0" encoding="UTF-8"?>
<svg width="137px" height="338px" viewBox="0 0 137 338" version="1.1" xmlns="http://www.w3.org/2000/svg" xmlns:xlink="http://www.w3.org/1999/xlink">
    <!-- Generator: Sketch 63.1 (92452) - https://sketch.com -->
    <title>manager</title>
    <desc>Created with Sketch.</desc>
    <defs>
        <polygon id="path-1" points="0 1.03275 136.507424 1.03275 136.507424 79.8477121 0 79.8477121"></polygon>
        <polygon id="path-3" points="2.07030005 0.641363636 45.18118 0.641363636 45.18118 53.7251515 2.07030005 53.7251515"></polygon>
    </defs>
    <g id="Page-1" stroke="none" stroke-width="1" fill="none" fill-rule="evenodd">
        <g id="3b---staff----counter" transform="translate(-660.000000, -120.000000)">
            <g id="manager" transform="translate(660.000000, 118.000000)">
                <g id="Group-3" transform="translate(0.000000, 259.510152)">
                    <mask id="mask-2" fill="white">
                        <use xlink:href="#path-1"></use>
                    </mask>
                    <g id="Clip-2"></g>
                    <path d="M116.516455,12.5753636 C89.8625152,-2.81478788 46.6464545,-2.81478788 19.9899394,12.5753636 C-6.664,27.9655152 -6.664,52.9168788 19.9899394,68.3070303 C46.6464545,83.6946061 89.8625152,83.6946061 116.516455,68.3070303 C143.17297,52.9168788 143.17297,27.9655152 116.516455,12.5753636" id="Fill-1" fill="#A8B0B5" mask="url(#mask-2)"></path>
                </g>
                <path d="M105.099152,282.828742 C98.6880909,281.020561 93.2274848,277.978591 90.4508182,273.769803 C85.5697576,273.919197 80.7015758,273.076924 75.6118788,271.250712 C71.8538485,276.013288 69.9246061,280.647076 73.6002121,285.090258 L84.6527879,285.041318 L95.5971818,291.903136 L107.45597,291.6945 C108.862333,287.908136 109.761273,284.312379 105.099152,282.828742" id="Fill-4" fill="#FCD9CA"></path>
                <path d="M74.4994091,272.777364 C68.9177424,276.695091 68.6189545,283.433273 70.3575909,288.711 C73.9842576,293.885697 81.8248636,290.444485 87.1721364,291.902364 C99.4713788,295.256 99.4919848,298.102212 105.395621,297.970848 C114.936227,297.759636 121.223652,293.700242 120.7085,290.56297 C120.286076,287.992364 116.164864,285.416606 109.452439,282.905242 L98.6110758,280.275394 C100.285318,281.238727 102.577742,282.060394 105.099409,282.82797 C108.517439,285.050848 107.306833,287.407667 104.128348,290.256455 C100.58153,291.801909 96.1460758,290.287364 90.4691061,287.314939 L78.2368333,281.493727 C74.9733485,279.440848 73.438197,276.656455 74.4994091,272.777364" id="Fill-6" fill="#523D40"></path>
                <path d="M30.2538182,280.837939 C28.5229091,283.897939 28.6285152,288.310212 29.0200303,293.126879 C29.0200303,293.126879 37.0692727,305.521424 37.236697,306.139606 C37.3989697,306.757788 48.4077576,309.444303 48.4077576,309.444303 L51.8592727,300.872182 C47.3285152,296.575818 46.267303,291.661273 44.5956364,284.863848 C39.4132121,284.54703 34.2179091,282.179909 30.4109394,278.836576 C30.3748788,279.498545 30.3233636,280.163091 30.2538182,280.837939" id="Fill-8" fill="#FCD9CA"></path>
                <path d="M30.2538182,280.837939 C26.3927576,283.982939 26.5550303,290.337333 27.376697,295.089606 C29.1848788,298.91203 31.7838182,301.253394 34.771697,306.863394 L37.587,310.549303 C43.2021515,315.239758 53.2553333,315.847636 56.7892727,313.369758 C59.0868485,309.341273 56.3410909,305.37203 49.4406364,298.332485 C52.0704848,303.72097 49.0671515,306.345667 42.2413939,305.624455 C39.0010909,305.008848 36.8245758,300.666121 33.2932121,294.780515 C30.0529091,288.596121 27.8841212,284.966879 30.2538182,280.837939" id="Fill-10" fill="#523D40"></path>
                <path d="M80.3829545,118.707394 L78.3635606,125.986485 L73.6241667,129.07997 L69.0238636,134.468455 C67.4346212,136.173606 68.7379545,137.458909 70.3168939,136.503303 L75.1876515,133.520576 L77.6397727,135.923758 L78.0750758,147.275121 C78.1137121,148.235879 78.5309848,149.142545 79.2418939,149.796788 L79.8291667,150.337697 L80.0197727,154.551636 C79.9605303,156.808 81.7918939,156.524667 82.4075,154.201333 L83.8473485,146.656939 L85.0811364,145.088303 C85.4675,144.596333 85.6915909,143.998758 85.7250758,143.378 L86.3355303,132.013758 L85.7044697,127.511333 L84.8287121,118.774364 L80.3829545,118.707394 Z" id="Fill-12" fill="#FFE2D6"></path>
                <path d="M62.9512576,42.6785 C76.1855,40.4144091 77.5197424,62.5350152 83.4980758,82.7109242 C86.4395909,96.3212273 83.8715606,110.469864 85.4633788,125.107894 L78.3620152,125.986227 C78.3800455,113.025015 73.9085303,101.369712 72.625803,91.203197 L61.0297424,59.2998636 L62.9512576,42.6785 Z" id="Fill-14" fill="#1B4A59"></path>
                <path d="M95.0779091,273.408682 C89.9985152,265.709742 91.8350303,213.949894 92.8859394,205.014591 C88.6977576,181.768379 78.4668485,154.712621 70.1136667,125.7405 L43.4494242,147.902318 C43.7662424,160.752773 57.6624545,183.741409 70.1136667,208.821561 C61.2144242,231.256409 73.5548788,262.6755 71.6282121,273.787318 C76.1898788,278.835803 90.7944242,277.437167 95.0779091,273.408682" id="Fill-16" fill="#C44575"></path>
                <path d="M70.806803,134.423379 C78.2558939,128.432167 26.9699848,112.709742 19.9355909,133.977773 C14.3281667,150.217924 16.3192273,163.848833 21.7077121,173.222015 C23.4154394,189.294742 25.3730152,198.320197 25.3987727,214.812773 C16.6901364,244.506106 27.9590758,260.844136 26.9004394,280.837167 C31.1530152,290.645652 45.9842273,291.693985 49.2477121,286.980348 C45.8528636,272.777621 42.5198333,237.087924 49.7345303,217.061409 C54.0180152,203.548985 54.8190758,185.521258 54.5949848,168.832924 C64.8155909,158.053379 71.1107424,142.861561 70.806803,134.423379" id="Fill-18" fill="#FF7DAF"></path>
                <path d="M74.1071212,102.860303 C73.2184848,103.313636 72.6209091,103.483636 72.6209091,103.483636 L75.5907576,135.693485 C70.7534848,165.198788 24.0060606,157.273182 15.3128788,139.50303 C17.1777273,131.095758 26.9269697,120.079242 24.1245455,111.625606 C24.0756061,111.435 24.0292424,111.265 23.9571212,111.097576 C19.2640909,99.3624242 16.1242424,89.9506061 16.1242424,89.9506061 C15.0707576,86.9343939 14.1383333,84.2040909 13.4171212,81.6901515 C10.8104545,72.5642424 11.3127273,68.9968182 13.4660606,66.0501515 C27.3107576,51.3940909 48.3366667,42.1007576 64.1672727,42.8193939 C70.1069697,44.4962121 71.0625758,53.1893939 71.665303,63.6804545 C72.165,72.4921212 80.8118182,82.6457576 81.3862121,88.729697 C82.2233333,97.6624242 76.8142424,101.518333 74.1071212,102.860303" id="Fill-20" fill="#FFFFFF"></path>
                <path d="M75.5912727,135.693742 C70.754,165.199045 24.0065758,157.270864 15.3133939,139.503288 C17.1782424,131.096015 26.9249091,120.0795 24.1250606,111.625864 C24.0761212,111.435258 24.0271818,111.265258 23.9576364,111.097833 C19.2646061,99.3626818 16.1247576,89.9508636 16.1247576,89.9508636 C15.0712727,86.9346515 14.1388485,84.2043485 13.4176364,81.6904091 C14.1852121,77.2575303 15.1433939,73.4273788 16.1247576,74.4319242 C33.8974848,92.8717727 35.3811212,115.38647 53.318697,113.181621 C63.2817273,111.960712 65.1259697,100.418742 65.1259697,100.418742 C67.258697,102.262985 71.019303,103.14647 74.1076364,102.860561 C73.219,103.313894 72.6214242,103.483894 72.6214242,103.483894 L75.5912727,135.693742 Z" id="Fill-22" fill="#8ED2D3"></path>
                <path d="M41.7038333,47.130697 C38.7571667,48.2794848 35.8130758,49.6703939 32.9385303,51.2493333 C33.2733788,48.4237273 35.8130758,47.1075152 41.7038333,47.130697" id="Fill-24" fill="#25435C"></path>
                <path d="M59.7114697,159.738182 C43.7649545,165.868485 21.299197,151.740455 15.3131364,139.50303 C17.1779848,131.095758 26.9246515,120.079242 24.124803,111.625606 C24.0758636,111.435 24.0269242,111.265 23.9573788,111.097576 C19.2643485,99.3624242 16.1245,89.9506061 16.1245,89.9506061 C15.0710152,86.9343939 14.1385909,84.2040909 13.4173788,81.6901515 C10.8107121,72.5642424 11.3129848,68.9968182 13.4663182,66.0501515 C19.0711667,60.1362121 25.824803,55.0825758 32.9364697,51.2498485 C31.9576818,58.9848485 47.4740455,78.1433333 55.3764697,112.751212 C58.3952576,126.065303 60.3116212,141.633182 59.7114697,159.738182" id="Fill-26" fill="#255568"></path>
                <path d="M75.903197,102.572333 L81.4591061,133.393848 C79.9497121,142.566121 78.7519848,153.034 71.5450152,155.787485 C70.2725909,138.854455 71.4007727,120.558848 69.7471364,102.572333 C67.9260758,82.4556667 62.6122879,62.6738485 46.5653182,45.4291515 C54.3492576,42.364 57.3165303,42.5082424 64.1654697,42.8199091 C70.1077424,44.4967273 71.0633485,53.1899091 71.6635,63.6783939 C72.1657727,72.4926364 80.8100152,82.6462727 81.3869848,88.7302121 C82.4894091,100.560667 75.903197,102.572333 75.903197,102.572333" id="Fill-28" fill="#255568"></path>
                <path d="M27.3007121,31.1857273 L27.7926818,49.7517879 L33.7117727,59.2820909 C42.0057121,72.4596667 55.7705606,73.3508788 51.3917727,54.9805758 L50.4387424,49.8599697 L48.0716212,40.0746667 L27.3007121,31.1857273 Z" id="Fill-30" fill="#FFE2D6"></path>
                <path d="M31.6171667,40.2737727 C31.5476212,40.4849848 34.3629242,59.9963485 44.9621667,59.4322576 C51.5998939,59.076803 50.3455,44.4258939 50.3455,44.4258939 L31.6171667,40.2737727 Z" id="Fill-32" fill="#FFE2D6"></path>
                <path d="M50.2561212,51.5890758 C45.424,53.7527121 38.3973333,48.621803 35.2008182,45.9404394 C34.1164242,45.0286212 33.2715758,43.8643788 32.7203636,42.5610455 L30.1214242,36.381803 L26.0414242,36.701197 C26.0414242,36.701197 18.9426364,32.8865 20.0527879,18.8975606 C20.6091515,11.9043788 29.4980909,4.89316667 36.9008182,4.85674042 C48.5612727,4.79786364 52.829303,11.9507424 55.9253636,16.7236212 C59.0188485,21.4990758 57.249303,31.2972576 57.249303,31.2972576 C57.249303,31.2972576 56.7470303,48.6836212 50.2561212,51.5890758" id="Fill-34" fill="#FFE2D6"></path>
                <g id="Group-38" transform="translate(15.454545, 1.934394)">
                    <mask id="mask-4" fill="white">
                        <use xlink:href="#path-3"></use>
                    </mask>
                    <g id="Clip-37"></g>
                    <path d="M18.1799545,42.2784848 C18.1799545,42.2784848 31.8752576,33.2813636 34.984197,15.6193939 C34.984197,15.6193939 40.509197,14.1589394 42.0855606,27.1819697 C48.3343485,16.5183333 45.1893485,5.81090909 32.0452576,1.94984848 C16.644803,-2.57060606 1.4195,4.77545455 2.09177273,21.4509091 C2.83359091,39.8572727 11.6040455,50.0263636 15.9519242,53.7251515 C15.9519242,53.7251515 14.5816212,45.1040909 18.1799545,42.2784848" id="Fill-36" fill="#583017" mask="url(#mask-4)"></path>
                </g>
                <path d="M55.3775,112.750955 C58.3962879,126.065045 60.3126515,141.632924 59.7125,159.737924 C43.7634091,165.870803 21.3002273,151.740197 15.3115909,139.502773 C17.1790152,131.0955 26.9256818,120.078985 24.1232576,111.625348 C24.0768939,111.434742 24.0279545,111.264742 23.9584091,111.097318 C19.262803,99.3621667 16.1255303,89.9503485 16.1255303,89.9503485 C15.0720455,86.9341364 14.1370455,84.2038333 13.4184091,81.6898939 C14.1859848,77.2595909 15.1441667,73.4268636 16.1255303,74.4339848 C33.8956818,92.8738333 35.3793182,115.385955 53.3168939,113.181106 C54.0612879,113.085803 54.7309848,112.941561 55.3775,112.750955" id="Fill-39" fill="#255568"></path>
                <path d="M81.4596212,133.394621 C79.9502273,142.566894 78.7525,153.034773 71.5429545,155.785682 C70.2731061,138.855227 71.4012879,120.559621 69.7476515,102.573106 C71.8546212,103.052197 74.1290152,103.075379 75.9037121,102.573106 L81.4596212,133.394621 Z" id="Fill-41" fill="#255568"></path>
                <path d="M6.05328788,153.205803 L6.46025758,158.851864 L6.03525758,172.183985 L7.93359091,180.4805 L11.3207121,188.055803 C11.8281364,189.521409 13.2370758,189.869136 13.2679848,188.820803 L14.6460152,192.063682 C15.6376818,194.415348 17.0595,193.786864 16.6164697,191.51247 L13.9145,179.908682 L17.9867727,191.404288 C18.7801061,193.560197 20.4234394,192.929136 19.854197,190.647015 L17.0260152,177.528682 L21.0390455,186.917318 C22.1208636,189.377167 23.6895,189.119591 23.1537424,186.3455 L19.2051061,169.19353 L23.6663182,173.912318 L26.314197,176.106864 C28.1043485,177.472015 29.2608636,175.741106 27.589197,173.889136 L25.6676818,171.372621 L23.4010152,166.18247 L14.2982879,157.831864 L11.4031364,150.217924 L6.05328788,153.205803 Z" id="Fill-43" fill="#FFE2D6"></path>
                <path d="M4.94159091,161.218727 C1.77856061,145.091909 0.56280303,128.184636 0.408257576,116.624636 C2.12371212,97.131303 7.91916667,78.580697 12.8903788,67.7779697 C20.9962879,62.0803939 28.0693182,77.8517576 24.3602273,87.1116061 L14.4590152,117.747667 L14.2993182,157.834182 C11.5432576,161.257364 8.42143939,162.346909 4.94159091,161.218727" id="Fill-45" fill="#255568"></path>
            </g>
        </g>
    </g>
</svg>