<?xml version="1.0" encoding="UTF-8"?>
<svg width="81px" height="27px" viewBox="0 0 81 27" version="1.1" xmlns="http://www.w3.org/2000/svg" xmlns:xlink="http://www.w3.org/1999/xlink">
    <!-- Generator: Sketch 63.1 (92452) - https://sketch.com -->
    <title>Logo 2</title>
    <desc>Created with Sketch.</desc>
    <g id="Page-1" stroke="none" stroke-width="1" fill="none" fill-rule="evenodd">
        <g id="sidebar---1-epilogue" transform="translate(-60.000000, -489.000000)">
            <g id="Logo-2" transform="translate(60.000000, 489.000000)">
                <g id="Logo">
                    <path d="M2.95170719,15.8044265 C2.97646605,15.9566595 2.98513165,16.0610128 3.01112845,16.1629107 C3.12625712,16.6441634 3.57934416,16.9940538 4.09804217,17.0063307 C4.6315955,17.0210629 5.14286585,16.677311 5.27780161,16.2132458 C5.41521325,15.7405868 5.17876619,15.2004052 4.67368555,15.0113416 C4.382769,14.9033053 4.02500355,14.8382379 3.72046964,14.8824346 C2.42062976,15.0727259 1.65681909,15.8302079 1.31019512,16.9412634 C1.08984131,17.6471826 1.14307285,18.3469634 1.53178687,19.0197351 C2.28693194,18.5937282 2.35254291,18.5839067 2.69050128,18.9718554 C2.84153029,19.144959 3.05445644,19.3868131 3.01608022,19.5562337 C2.97027634,19.7575741 2.68431156,19.9134902 2.50357192,20.0890493 C3.86902277,21.3032303 6.55164469,20.8256606 7.34145216,19.2210755 C7.43553581,19.0283289 7.50238471,18.8110285 7.51724003,18.6010943 C7.54942654,18.1407122 7.3686869,17.7453974 6.90569631,17.5145925 C6.50460286,17.3157075 6.08494027,17.3476273 5.70365391,17.5722938 C5.28770515,17.8178309 5.11563111,18.1824535 5.1936215,18.6244203 C5.28646721,19.1498698 5.69003654,19.4089114 6.2768214,19.5390461 C6.01685342,19.7256543 5.77669253,19.8717489 5.56995609,20.050991 C5.34217463,20.2511038 5.14657968,20.2216393 4.91756027,20.0595848 C4.21564673,19.5611444 3.80093592,18.9546678 4.02005178,18.1112477 C3.02598376,18.0314482 2.34635319,17.5686107 2.06410225,16.7693874 C2.02696397,16.6625787 2.02448808,16.4796536 2.09628876,16.4182693 C2.35006702,16.2009689 2.64345945,16.0204992 2.95170719,15.8044265 L2.95170719,15.8044265 Z M24.8496764,18.9914983 C25.7050948,17.6128074 24.921477,15.5748493 23.3084376,15.0064309 C22.7649808,14.8136842 22.2066686,14.7572107 21.6681635,15.0383507 C21.202697,15.2814324 20.9761535,15.7528637 21.0999478,16.1997413 C21.2163144,16.6134713 21.7127295,16.9768662 22.2029548,17.005103 C22.695656,17.0333398 23.171026,16.7583382 23.3406242,16.3225098 C23.4025213,16.1653661 23.409949,15.9910347 23.4483252,15.794605 C23.690962,15.9689364 23.8939846,16.14204 24.1254799,16.2758578 C24.3866858,16.4280908 24.4126826,16.5999668 24.2975539,16.8467316 C23.9373126,17.6201735 23.3307206,18.0756449 22.3725529,18.0977432 C22.5706238,19.0000921 22.13363,19.6225287 21.3747711,20.1013261 C21.2806874,20.1614827 21.0974719,20.2191839 21.0269092,20.1774426 C20.7174235,19.9957451 20.4314587,19.7759894 20.1046418,19.5476399 C20.2692882,19.4973048 20.3584201,19.4739788 20.4438381,19.4445143 C21.0071021,19.2468569 21.3153498,18.7877025 21.2200282,18.2917175 C21.1209928,17.7773173 20.6480987,17.41515 20.0514103,17.3967347 C19.5141431,17.3795471 18.9830657,17.7097946 18.9199306,18.2143733 C18.8766026,18.563036 18.9273583,18.9694 19.0932426,19.2812321 C19.8941916,20.7900577 22.2821831,21.2528952 23.7516211,20.2179562 C23.8085665,20.1786703 23.8457048,20.1185137 23.8915087,20.0681786 C23.236637,19.5402738 23.2217817,19.5132647 23.6166854,19.0528826 C23.7503832,18.8969665 23.949692,18.6698447 24.1093866,18.6747554 C24.3507854,18.6833492 24.5847566,18.8687298 24.8496764,18.9914983 L24.8496764,18.9914983 Z M12.4801525,24.439967 C12.4801525,24.2337159 12.3984483,23.9795849 12.5036734,23.8445395 C12.6088985,23.7082664 12.8973392,23.6444268 13.1102653,23.6333776 C13.3652815,23.6211007 13.7094296,23.6211007 13.8604586,23.7573738 C14.0114877,23.8948746 13.9718735,24.2054791 14.0164394,24.439967 C15.9018262,24.1514609 17.1335792,22.0558016 16.3351062,20.5003239 C16.1085627,20.0620402 15.7483213,19.7747617 15.2073403,19.6851407 C14.6440764,19.5930643 14.1835617,19.7796725 13.9495905,20.2130455 C13.700764,20.6721999 13.8121789,21.1915109 14.2293656,21.5180753 C14.6391246,21.8385012 15.1392535,21.8556888 15.6146235,21.5671827 C15.6851862,21.5254414 15.7607007,21.4873832 15.8783053,21.4223158 C15.8783053,21.7206434 15.8485947,21.972319 15.885733,22.2154007 C15.9364886,22.5456481 15.7507972,22.663506 15.4475012,22.7285733 C14.5697998,22.9151815 13.808465,22.7641762 13.2303458,22.0963152 C12.5321461,22.77277 11.6457791,22.9802489 10.8175954,22.6647337 C10.7210358,22.6291308 10.5836242,22.5431928 10.5774345,22.4744424 C10.5526756,22.1392842 10.566293,21.8028984 10.566293,21.4124943 C10.6888493,21.4947493 10.738367,21.5315798 10.7915986,21.5634997 C11.2657307,21.8556888 11.8129013,21.8385012 12.2164707,21.5205307 C12.6373712,21.1890556 12.7413584,20.6451908 12.4752007,20.1786703 C12.2325639,19.7538911 11.7708113,19.5844705 11.1976438,19.6961899 C10.7235117,19.789494 10.4004087,20.0485356 10.1726272,20.4217521 C9.2194113,21.9919619 10.4709714,24.2042514 12.4801525,24.439967 L12.4801525,24.439967 Z M14.0003462,16.1481785 C14.4212467,16.2819962 15.1033532,15.9480657 15.1206843,16.7165969 C15.1392535,17.544057 14.4212467,17.1929389 13.983015,17.305886 L13.983015,17.6668256 C16.2670193,18.2683915 17.8033063,19.4592465 17.7760715,21.7795723 C17.7550265,23.592864 16.489849,24.8180942 14.0102497,25.5706655 C13.9693976,25.8039257 14.00406,26.0850657 13.8666484,26.2434372 C13.7539956,26.3747995 13.4370822,26.4005809 13.2080628,26.404264 C12.5866156,26.4116301 12.5222425,26.3256921 12.4492039,25.5547056 C11.2285924,25.326356 10.2035758,24.7898574 9.47318956,23.8420841 C8.94953978,23.1656294 8.69576152,22.405692 8.69328563,21.5843703 C8.68833386,19.7403865 9.86561741,18.5298885 12.4578695,17.6987454 L12.4578695,17.3071137 C12.0245896,17.1843451 11.2533512,17.5551062 11.3214381,16.7018647 C11.3375313,16.4894751 11.2842998,16.185009 11.690345,16.1776429 C11.9379336,16.1727322 12.1855221,16.1764152 12.4529177,16.1764152 C12.4615833,16.032776 12.4727248,15.9284227 12.4727248,15.8240695 C12.4739628,14.8235057 12.4739628,13.8229419 12.4739628,12.7401232 C11.474943,13.4853284 10.5427721,14.1777431 9.61802886,14.8664747 C9.80495821,15.1476147 10.0302638,15.3956072 10.133013,15.6804303 C10.1676754,15.7786451 9.92256278,15.9996285 9.76039228,16.1064372 C9.57717675,16.2255227 9.35063323,16.4280908 9.11666205,16.1444954 C8.96810892,15.9627979 8.81584196,15.7835558 8.63881615,15.5723939 C8.51007011,15.6681534 8.39370349,15.7540914 8.26619539,15.8498509 C8.87526322,16.8651469 9.0225784,17.9197288 8.69452357,19.0185074 C8.44074531,19.8668382 7.91585759,20.550659 7.13966749,21.0797915 C5.67889506,22.0754446 3.30080705,22.167521 1.57635281,20.7372673 C1.30276746,20.8551251 1.03537183,21.0527825 0.763024426,21.0576932 C0.582284786,21.0601486 0.36316892,20.8097007 0.215853734,20.6353693 C-0.0713489823,20.2916174 -0.0478280702,20.2572422 0.584760671,19.6937345 C0.181191337,18.9423909 -0.0626833831,18.1480783 0.0140690669,17.2886984 C0.271561157,14.4024095 3.55458531,12.7855476 6.36100151,14.1691493 C6.62592125,14.3005116 6.89331689,14.4453785 7.11490864,14.627076 C7.35506953,14.822278 7.496195,14.7387954 7.66207933,14.560781 C7.5308574,14.17406 6.73238433,13.9064246 7.45658083,13.3822028 C8.17334968,12.8653472 8.3070475,13.5810879 8.68833386,13.8290804 C9.81114793,13.0102141 10.9265343,12.1962585 12.0703934,11.36266 C10.8658751,10.456628 9.69106748,9.57269437 8.49645274,8.67157314 C8.31076132,8.88273506 8.14982877,9.06811559 7.97527884,9.26822834 C8.19934648,9.43642127 8.40979674,9.5960204 8.65119558,9.77649018 C8.48654919,9.97537525 8.32314075,10.1681219 8.14859083,10.3768284 C7.90719199,10.2110909 7.68683818,10.0613132 7.43924963,9.89189263 C7.27460325,10.066224 7.11367069,10.2344169 6.92674134,10.4308466 C7.13966749,10.5965842 7.34516599,10.7561833 7.58285099,10.9427915 C7.41572872,11.1453596 7.25479617,11.3417893 7.06415298,11.5713665 C6.42785041,11.0974799 5.81135493,10.6395532 5.1502935,10.1497066 C5.76183722,9.8427852 6.32757705,9.55796214 6.89826866,9.27068371 C6.48603372,8.82380615 6.48727167,8.82503384 5.9958084,9.06811559 C5.61452203,9.25595148 5.23199773,9.44133201 4.77272097,9.66599847 C4.91508438,9.23999157 5.03516483,8.88150737 5.15524528,8.52179549 C5.32855726,8.01230597 5.32855726,8.01230597 4.79376599,7.66487094 C4.59321927,8.2394278 4.39886226,8.80048012 4.17974639,9.42659978 C3.5223988,8.94657471 2.89352389,8.48742029 2.23741423,8.00739522 C2.41815387,7.80728247 2.58156231,7.625585 2.75735018,7.43038299 C2.98017988,7.59489286 3.18320249,7.74344282 3.42460132,7.92145723 C3.60534096,7.73239365 3.78112883,7.55069618 3.97300996,7.35058343 C3.73532495,7.15415373 3.5223988,6.97982237 3.28718968,6.78584805 C3.46545343,6.59923984 3.62514805,6.43104691 3.80217386,6.24566638 C4.03985886,6.40035477 4.2639265,6.54399398 4.50903916,6.70236543 C4.66873378,6.5255787 4.81604896,6.36106883 4.99926449,6.15727302 C4.57588807,5.85526236 4.17974639,5.5446579 3.75141821,5.27579475 C3.49021229,5.11128488 3.47164315,4.94186427 3.64000336,4.74175152 C3.86654688,4.47288837 4.11784926,4.21998513 4.36667575,3.95357736 C7.09138772,5.97189249 9.74429902,7.93741714 12.4454901,9.93731699 L12.4454901,5.98908009 L11.6792035,5.98908009 L11.6792035,6.71218691 L10.868351,6.71218691 C10.8559716,6.4826097 10.8423542,6.25917092 10.8274989,6.00381232 L10.0228361,6.00381232 L10.0228361,6.70359311 L9.18722479,6.70359311 L9.18722479,4.51094662 C9.79753056,4.74052383 10.4004087,4.96764567 11.0045247,5.19599519 C11.1666952,4.68159492 11.1357467,4.61898296 10.6467593,4.43483012 C10.2332864,4.28014173 9.81857558,4.12668103 9.31597083,3.93761745 C9.7987685,3.76574146 10.2085275,3.61964687 10.6195245,3.47477997 C11.1246052,3.29676556 11.128319,3.28817176 11.0280456,2.72711944 C10.415264,2.93950905 9.80867204,3.14944329 9.17484536,3.36919901 L9.17484536,1.13358353 L10.0079808,1.13358353 L10.0079808,1.90457009 L10.8312127,1.90457009 L10.8312127,1.14094964 L11.6507308,1.14094964 L11.6507308,1.89597629 L12.4739628,1.89597629 C12.4739628,1.40490204 12.4875801,0.906461689 12.4677731,0.408021333 C12.4591075,0.183354868 12.5470014,0.0765462203 12.7809726,0.049537137 C12.9121945,0.0348049098 13.0421785,0.00902351209 13.1734004,0.00411276968 C13.8468413,-0.0241239992 13.9656838,0.0814569627 13.9656838,0.68547828 L13.9656838,9.48061795 L13.9656838,9.95818765 C16.6891578,7.94232789 19.3482588,5.97312018 22.0296428,3.98672487 C22.17572,4.103355 22.3230352,4.20279754 22.4493054,4.32311073 C23.0472317,4.90012296 23.0360902,5.01920846 22.3552217,5.49677816 C22.0444981,5.71407851 21.7350124,5.93383424 21.4156232,6.16095607 C21.5938869,6.35001966 21.7473918,6.51330184 21.9268935,6.70359311 C22.154675,6.55627084 22.3737909,6.41508699 22.630045,6.24934944 C22.7984052,6.41999774 22.9605757,6.58573529 23.1549327,6.78339268 C22.9321031,6.96754552 22.7204148,7.14064919 22.4753022,7.34321731 C22.6337589,7.52859784 22.7909776,7.71152299 22.9741931,7.92268492 C23.2094022,7.75940273 23.4272801,7.60962509 23.6835343,7.43283836 C23.8494186,7.61576352 24.0128271,7.79500561 24.2034702,8.00616754 C23.5634539,8.47514344 22.9345789,8.93675323 22.2599001,9.43028284 C22.046974,8.81644004 21.851379,8.25293234 21.6545461,7.68451391 C21.096234,7.97915845 21.096234,7.97915845 21.2806874,8.51934012 C21.3921023,8.84958755 21.5047551,9.18106266 21.6161699,9.51253777 C21.6235976,9.53340843 21.6174079,9.55673446 21.6174079,9.63776171 C21.2163144,9.44133201 20.8412178,9.25963454 20.4673591,9.07670938 C19.9610405,8.82626152 19.9610405,8.82503384 19.5116673,9.26822834 C20.0922624,9.55550677 20.6666678,9.83910215 21.2918289,10.1484789 C20.6357193,10.6297317 20.0043685,11.0913415 19.3470209,11.5725942 C19.1687571,11.3577492 19.0140143,11.171141 18.8320367,10.9513853 C19.062294,10.7745986 19.2776961,10.608861 19.5091914,10.4296189 C19.3358794,10.2466938 19.1749468,10.0760455 19.0003969,9.89189263 C18.7676637,10.0514918 18.5497857,10.2024971 18.2960075,10.3780561 C18.1226955,10.1779434 17.9555732,9.98642442 17.7810233,9.78385629 C18.0112807,9.61198031 18.2217309,9.45238118 18.4618918,9.27313908 C18.2960075,9.07793707 18.1387888,8.89255654 17.9481456,8.67034545 C16.7560067,9.56655594 15.582437,10.4504896 14.371729,11.3614323 C15.5044466,12.1888924 16.6185951,13.0028479 17.7401712,13.8229419 C18.1363129,13.6240569 18.284866,12.7892307 18.976876,13.4116673 C19.1340947,13.5528511 19.4188216,13.7014011 19.1959919,13.9764026 C19.0486767,14.1593278 18.8865062,14.3324315 18.7144321,14.5276335 C18.8369885,14.6172545 18.9484033,14.6970541 19.0783873,14.7915859 C20.1269248,13.9874518 21.3079222,13.5528511 22.6869904,13.6940349 C23.5783092,13.7848837 24.3569751,14.1175865 25.0143227,14.6737281 C26.5246129,15.9505211 26.8279089,17.8607999 25.809082,19.6728638 C26.0059149,19.8668382 26.2819761,20.0362588 26.36987,20.2646083 C26.4206257,20.3996537 26.2076995,20.6525569 26.0579085,20.8109284 C25.700143,21.1902832 25.6345321,21.175551 24.9264288,20.7286735 C24.555046,20.9484292 24.1997564,21.2001047 23.8073286,21.3830299 C22.1472474,22.1564718 20.1714907,21.8986578 18.8506058,20.7593656 C17.5247692,19.6163903 17.1707175,17.805554 17.9741424,16.1567723 C18.1028884,15.8928199 18.0880331,15.7369038 17.7735956,15.6067691 C17.4059267,15.8363463 17.2524218,16.6797663 16.5207976,16.0217268 C16.1778875,15.7135778 16.1927428,15.6521935 16.8290453,14.8959391 C16.3697686,14.5497318 15.9080159,14.1986137 15.4462633,13.8511787 C14.9807968,13.5012883 14.5140924,13.1526256 14.0003462,12.76836 L14.0003462,16.1481785 Z" id="Fill-1" fill="#000000"></path>
                    <path d="M56.547695,5.08421317 L56.547695,11.8320415 C57.2848717,11.8320415 57.996716,11.842978 58.7072936,11.8308264 C59.88019,11.8101685 60.7984943,11.365417 61.3545435,10.4576864 C62.1677179,9.13072288 62.1854506,7.76244362 61.424208,6.40996155 C61.010021,5.67843036 60.3247759,5.17535077 59.3925387,5.10001035 C58.4603014,5.0258851 57.5153978,5.08421317 56.547695,5.08421317 M56.5489616,12.775012 L56.5489616,20.7039837 C57.5584631,20.6614528 58.5489652,20.6881865 59.5128682,20.561809 C61.0796855,20.3564456 62.0701876,19.5179797 62.4729749,18.1703583 C62.778232,17.1398957 62.7541661,16.1033573 62.4311762,15.0838313 C62.0613212,13.91727 61.2228143,13.0982467 59.8333248,12.9171866 C58.7630252,12.7786575 57.6635931,12.8163277 56.5489616,12.775012 M61.2266142,12.2767931 C61.6015357,12.3436273 61.9802571,12.3970947 62.3513787,12.4772958 C64.6933716,12.9840209 66.2171236,14.4847535 66.3387198,16.397428 C66.4932482,18.7876636 65.0809594,20.5569484 62.469175,21.2726824 C61.4128083,21.5618924 60.3323757,21.6627513 59.2354769,21.6639665 C56.5894937,21.6663968 53.9435104,21.6651817 51.2987937,21.6639665 C50.7794767,21.6639665 50.7794767,21.6627513 50.7782101,21.1961268 L50.7782101,20.6675287 L53.140469,20.6675287 L53.140469,5.07327665 L50.9466715,5.07327665 L50.9466715,4.08899051 C51.0429351,4.07805399 51.1227326,4.06225681 51.2012635,4.06225681 C54.3184319,4.06711748 57.4368669,4.05739614 60.555302,4.08899051 C61.6775333,4.09992702 62.7389665,4.38306118 63.6813368,4.94325367 C66.0689283,6.36135482 66.256389,9.32150427 64.067658,10.9656267 C63.327948,11.5209585 62.4742415,11.8879393 61.5432709,12.1273274 C61.4406741,12.1528459 61.3418772,12.1880858 61.2430803,12.2196802 C61.2367472,12.2221105 61.2367472,12.2391228 61.2266142,12.2767931" id="Fill-3" fill="#E60000"></path>
                    <path d="M45.9055083,5.05585836 L43.8063766,5.05585836 L43.8063766,4.06724978 L49.4241245,4.06724978 L49.4241245,5.04212769 L47.5193569,5.04212769 L47.5193569,5.53268725 C47.5181029,9.18255025 47.548198,12.8324132 47.4942776,16.4822762 C47.4792301,17.3922455 47.2936438,18.3246831 47.0115024,19.2009498 C46.5074098,20.762502 45.2910671,21.722401 43.5480605,22.0731573 C41.736086,22.4376443 39.90781,22.4351479 38.1021053,22.0469442 C35.7220862,21.5339163 34.3339507,20.0684788 34.061841,17.8216411 C33.96654,17.0364962 33.9138736,16.24511 33.9101117,15.4562204 C33.8938102,12.1471277 33.9025879,8.83803513 33.9025879,5.52769428 L33.9025879,5.05710661 L31.8210117,5.05710661 L31.8210117,4.06225681 L39.7698742,4.06225681 L39.7698742,5.05211363 L37.5014577,5.05211363 L37.5014577,5.47776455 C37.5014577,8.7993396 37.4788864,12.1209146 37.5165052,15.4424897 C37.525283,16.3849133 37.6180761,17.3410675 37.8199639,18.2647675 C38.2726441,20.3281134 39.7560806,21.2692887 42.0583541,21.0471015 C42.4157332,21.0121507 42.7756201,20.9647174 43.1217135,20.8798369 C44.6339912,20.5116052 45.3738286,19.5067694 45.6634937,18.1948658 C45.815223,17.5070839 45.9030004,16.7968335 45.9080162,16.0965691 C45.9318415,12.5191042 45.9205558,8.94288756 45.9218098,5.36667091 C45.9218098,5.28303862 45.9130321,5.19815808 45.9055083,5.05585836" id="Fill-5" fill="#E60000"></path>
                    <path d="M69.5506715,16.5719149 C69.6248966,17.0719121 69.6760023,17.5719094 69.7782138,18.060823 C70.1469054,19.8292862 71.2882675,20.9709055 73.0562836,21.2529237 C73.6817208,21.3526768 74.3582638,21.360066 74.9824842,21.2566182 C76.4645513,21.0103142 77.4197424,19.9290393 77.5657589,18.4746138 C77.7251602,16.8871841 77.2542571,15.9992579 75.7040489,15.2923653 C74.6624647,14.8182299 73.5442219,14.4906455 72.4697841,14.0768547 C71.446452,13.6815366 70.4790929,13.187697 69.7380593,12.4007555 C68.3095315,10.8822909 68.157431,9.12860596 68.8047707,7.29979826 C69.4350751,5.51655681 70.9280935,4.6076948 72.8360421,4.23700718 C74.9824842,3.82198483 77.031582,4.17789421 79.0174059,4.96976178 C79.2875364,5.07813557 79.4104336,5.22099193 79.408,5.50916769 C79.3921815,6.71975218 79.4006992,7.92910515 79.4006992,9.16801461 L78.346947,9.16801461 C78.2143154,8.60274678 78.1242719,8.03255286 77.9454017,7.48822087 C77.2773763,5.44143407 75.1783896,4.50547861 73.0088282,5.26902122 C71.8759838,5.66680229 71.3077364,6.46729051 71.1264326,7.54487081 C70.9536464,8.56580117 71.2736659,9.43525453 72.1923528,10.0042169 C72.9273024,10.4586479 73.7498618,10.7997791 74.5590364,11.1396787 C75.5714173,11.5645532 76.6580232,11.855192 77.6278159,12.3453371 C79.8460494,13.4660206 80.8693815,15.5115759 80.4909555,17.8317602 C80.1222639,20.1002206 78.539202,21.6617884 76.0094667,22.1346922 C73.6074957,22.5829656 71.2687986,22.2837062 69.0006761,21.4487354 C68.653887,21.3218888 68.5261226,21.1445499 68.5200386,20.787409 C68.4993529,19.3970225 68.4324287,18.0066361 68.381323,16.5719149 L69.5506715,16.5719149 Z" id="Fill-7" fill="#E60000"></path>
                </g>
            </g>
        </g>
    </g>
</svg>